<?xml version="1.0" encoding="UTF-8" standalone="no"?>
<!-- Generator: Adobe Illustrator 15.0.2, SVG Export Plug-In . SVG Version: 6.00 Build 0)  -->

<svg
   xmlns:dc="http://purl.org/dc/elements/1.1/"
   xmlns:cc="http://creativecommons.org/ns#"
   xmlns:rdf="http://www.w3.org/1999/02/22-rdf-syntax-ns#"
   xmlns:svg="http://www.w3.org/2000/svg"
   xmlns="http://www.w3.org/2000/svg"
   xmlns:sodipodi="http://sodipodi.sourceforge.net/DTD/sodipodi-0.dtd"
   xmlns:inkscape="http://www.inkscape.org/namespaces/inkscape"
   version="1.1"
   id="Layer_1"
   x="0px"
   y="0px"
   width="35"
   height="35"
   viewBox="0 0 35 35"
   enable-background="new 0 0 512 512"
   xml:space="preserve"
   inkscape:version="0.92.4 (unknown)"
   sodipodi:docname="gitColored.svg"><style
     id="style8720">
.clickImg {
    fill:#000000;
    fill-opacity:1;
}

.clickImg:hover {
    fill:#000000;
    fill-opacity:1;
}
</style><metadata
     id="metadata9"><rdf:RDF><cc:Work
         rdf:about=""><dc:format>image/svg+xml</dc:format><dc:type
           rdf:resource="http://purl.org/dc/dcmitype/StillImage" /><dc:title /></cc:Work></rdf:RDF></metadata><defs
     id="defs7" /><sodipodi:namedview
     pagecolor="#ffffff"
     bordercolor="#666666"
     borderopacity="1"
     objecttolerance="10"
     gridtolerance="10"
     guidetolerance="10"
     inkscape:pageopacity="0"
     inkscape:pageshadow="2"
     inkscape:window-width="2048"
     inkscape:window-height="1067"
     id="namedview5"
     showgrid="false"
     inkscape:zoom="3.6714286"
     inkscape:cx="-10.690661"
     inkscape:cy="17.5"
     inkscape:window-x="0"
     inkscape:window-y="51"
     inkscape:window-maximized="1"
     inkscape:current-layer="Layer_1"
     fit-margin-top="0"
     fit-margin-left="0"
     fit-margin-right="0"
     fit-margin-bottom="0" /><path
     class="clickImg"
     inkscape:connector-curvature="0"
     style="    "
     id="path3"
     d="M 17.5,0 C 7.834805,0 0,7.834805 0,17.5 0,27.165195 7.834805,35 17.5,35 27.165195,35 35,27.165195 35,17.5 35,7.834805 27.165195,0 17.5,0 z m 0,1.905517 c 8.612395,0 15.59448,6.982088 15.59448,15.594483 0,8.612395 -6.982085,15.59448 -15.59448,15.59448 C 8.887605,33.09448 1.905927,26.112395 1.905927,17.5 1.905927,8.887605 8.887605,1.905517 17.5,1.905517 z M 9.7596,6.4724 C 9.31615,7.763985 9.161455,9.164875 9.55924,10.388915 9.079015,10.92082 8.706385,11.533525 8.440265,12.226555 7.729735,14.47175 7.90323,17.34325 9.45882,19.0791 c 0.546875,0.600745 1.288915,1.09211 2.22168,1.478275 0.932695,0.38623 2.13322,0.63232 3.59871,0.73835 -0.984375,0.460535 -1.678225,0.741695 -1.9196,1.758545 -1.09799,0.73315 -2.432775,0.558835 -3.40136,-0.23755 C 9.193445,22.25617 8.846115,21.2666 7.999345,20.89842 7.945955,20.84455 7.779775,20.80696 7.50032,20.77879 7.22046,20.75144 7.00007,20.83088 6.839835,21.01716 c -0.07951,0.07855 -0.07437,0.16488 0.0192,0.257985 0.64039,0.52295 1.25904,1.07584 1.621415,1.738105 0.346445,0.719415 0.82414,1.153565 1.198815,1.48682 1.036055,0.699795 2.39299,0.950125 3.609375,0.50579 -0.141845,0.8562 0.15128,2.397705 -0.12947,3.16162 -0.10678,0.213625 -0.259765,0.39997 -0.459305,0.560545 -0.177735,0.17432 -0.730625,0.39136 -0.618655,0.65796 0.05339,0.11963 0.23878,0.193115 0.55884,0.22046 0.70533,-0.01875 1.504315,-0.30413 1.91748,-0.85955 0.14697,-0.20002 0.31746,-0.459785 0.31746,-0.779295 v -3.274415 c 0,-0.37338 0.13631,-0.637385 0.296545,-0.79974 0.16023,-0.158935 0.305495,-0.28198 0.578525,-0.319645 v 4.316825 c 0,0.37256 -0.4576,1.41244 -0.512695,1.51758 -0.12175,0.206715 -0.393955,0.394705 -0.399085,0.63827 0,0.08121 0.02905,0.127355 0.12264,0.139315 0.70068,-0.02995 1.27572,-0.441805 1.56071,-1.01944 0.363125,-0.551115 0.445635,-0.87924 0.54086,-1.51676 V 23.625 h 0.875 v 4.02466 c 0,0.53238 -0.08757,1.03906 0.15292,1.515935 0.240145,0.480155 0.97501,0.787775 1.53385,0.921145 0.293945,0.08032 0.440915,0.11108 0.546875,0.0983 0.106775,-0.01285 0.12817,-0.05893 0.1145,-0.13925 -0.06323,-0.240965 -0.40503,-0.448575 -0.546875,-0.63745 -0.18628,-0.240965 -0.48877,-0.746825 -0.48877,-1.519355 V 23.57373 c 0.28711,0.06494 0.4051,0.160715 0.579415,0.31965 0.17254,0.160645 0.295655,0.426355 0.295655,0.799735 v 3.274415 c 0,0.31958 0.23071,0.579345 0.377615,0.779295 0.446045,0.567385 1.19629,0.856135 1.89868,0.85955 0.31958,-0.0273 0.54517,-0.10083 0.599785,-0.220455 0.05476,-0.11963 0.03335,-0.21875 -0.09994,-0.299075 -0.13248,-0.08032 -0.28964,-0.19995 -0.491365,-0.358885 -0.19995,-0.158935 -0.346035,-0.346925 -0.45459,-0.56055 -0.11963,-1.373135 -0.001,-2.845455 -0.09741,-4.23486 -0.191405,-1.51587 -0.77417,-2.016605 -1.937985,-2.597655 1.387695,-0.10418 2.527585,-0.35889 3.41961,-0.75879 2.67114,-1.29712 3.40942,-3.30347 3.421385,-5.99341 -0.04275,-1.73161 -0.54175,-3.240235 -1.68164,-4.396805 C 25.23985,9.57414 25.28599,8.93621 25.21934,8.270525 25.15358,7.6045 25.01262,7.00424 24.799,6.471445 23.812845,6.525725 22.985765,6.723555 22.319265,7.07 21.65276,7.416515 21.172535,7.70957 20.87859,7.950125 18.51766,7.413915 15.987885,7.41091 13.72184,8.029635 12.56062,7.082035 11.124595,6.55396 9.759595,6.472405 z" /></svg>
