<?xml version="1.0" encoding="UTF-8" standalone="no"?>
<!-- Generator: Adobe Illustrator 21.1.0, SVG Export Plug-In . SVG Version: 6.00 Build 0)  -->

<svg
   xmlns:dc="http://purl.org/dc/elements/1.1/"
   xmlns:cc="http://creativecommons.org/ns#"
   xmlns:rdf="http://www.w3.org/1999/02/22-rdf-syntax-ns#"
   xmlns:svg="http://www.w3.org/2000/svg"
   xmlns="http://www.w3.org/2000/svg"
   xmlns:sodipodi="http://sodipodi.sourceforge.net/DTD/sodipodi-0.dtd"
   xmlns:inkscape="http://www.inkscape.org/namespaces/inkscape"
   version="1.1"
   id="Layer_1"
   x="0px"
   y="0px"
   width="35"
   height="35"
   viewBox="0 0 35 35"
   xml:space="preserve"
   inkscape:version="0.92.4 (unknown)"
   sodipodi:docname="instaColored.svg"><metadata
     id="metadata15"><rdf:RDF><cc:Work
         rdf:about=""><dc:format>image/svg+xml</dc:format><dc:type
           rdf:resource="http://purl.org/dc/dcmitype/StillImage" /></cc:Work></rdf:RDF></metadata><defs
     id="defs13" /><sodipodi:namedview
     pagecolor="#ffffff"
     bordercolor="#666666"
     borderopacity="1"
     objecttolerance="10"
     gridtolerance="10"
     guidetolerance="10"
     inkscape:pageopacity="0"
     inkscape:pageshadow="2"
     inkscape:window-width="2048"
     inkscape:window-height="1067"
     id="namedview11"
     showgrid="false"
     inkscape:zoom="4.3703704"
     inkscape:cx="-78.025424"
     inkscape:cy="27"
     inkscape:window-x="0"
     inkscape:window-y="51"
     inkscape:window-maximized="1"
     inkscape:current-layer="Layer_1" /><style
     type="text/css"
     id="style3">
	.st0{fill:#000000;}

.clickImg {
    fill:#000000;
    fill-opacity:1;
}</style><path
     class="clickImg"
     style="    "
     d="m 35.057628,17.605086 c 0,3.472422 0,5.814288 -0.08076,7.106351 -0.161507,3.149406 -1.049801,5.572026 -2.826389,7.26786 -1.776588,1.695834 -4.118454,2.664882 -7.26786,2.826389 -1.292064,0.08076 -3.714684,0.08076 -7.106351,0.08076 -3.472422,0 -5.814288,0 -7.106353,-0.08076 -3.1494059,-0.161507 -5.5720263,-1.049801 -7.26786,-2.826389 -1.6958338,-1.695834 -2.66488218,-4.118454 -2.82638965,-7.26786 -0.0807555,-1.292063 -0.0807555,-3.714684 -0.0807555,-7.106351 0,-3.391669 0,-5.814289 0.0807555,-7.106353 C 0.73717682,7.3493269 1.6254708,4.9267065 3.402059,3.2308728 5.0978927,1.535039 7.5205131,0.56599178 10.669919,0.40448312 c 1.292065,-0.0807555 3.714684,-0.0807555 7.106353,-0.0807555 3.472421,0 5.814287,0 7.106351,0.0807555 3.149406,0.16150866 5.572026,1.04980278 7.26786,2.82638968 1.695834,1.7765881 2.664882,4.1184541 2.826389,7.2678602 0,1.292064 0.08076,3.633931 0.08076,7.106353 z M 19.472107,3.3923814 c -1.049803,0 -1.615081,0 -1.695834,0 -0.08076,0 -0.646032,0 -1.695835,0 -1.049802,0 -1.857341,0 -2.341866,0 -0.565278,0 -1.292064,0 -2.180358,0.080756 -0.888294,0 -1.6958336,0.080755 -2.3418659,0.2422606 C 8.5703158,3.7961531 8.0050379,3.9576606 7.6012686,4.119168 6.8744821,4.4421842 6.2284498,4.8459546 5.5824187,5.4112325 5.0171408,5.9765105 4.6133703,6.6225415 4.2903542,7.4300824 4.1288467,7.8338517 3.9673381,8.3991296 3.8865838,9.0451619 3.8058282,9.6911942 3.7250763,10.41798 3.644322,11.387028 c 0,0.888294 -0.080756,1.61508 -0.080756,2.180358 0,0.565279 0,1.372819 0,2.341866 0,1.049803 0,1.61508 0,1.695835 0,0.08075 0,0.646031 0,1.695834 0,1.049801 0,1.857341 0,2.341866 0,0.565278 0,1.292063 0.080756,2.180357 0,0.888294 0.080755,1.695834 0.2422618,2.341866 0.1615086,0.646032 0.2422629,1.21131 0.4037704,1.615079 0.3230161,0.726787 0.7267866,1.372819 1.2920645,2.018852 0.565278,0.565278 1.211309,0.969047 2.0188499,1.292063 0.4037693,0.161509 0.9690472,0.323016 1.6150795,0.40377 0.6460323,0.08076 1.3728179,0.161508 2.3418659,0.242262 0.969049,0.08076 1.61508,0.08076 2.180358,0.08076 0.565279,0 1.372819,0 2.341866,0 1.049803,0 1.61508,0 1.695835,0 0.08075,0 0.646031,0 1.695834,0 1.049801,0 1.857341,0 2.341866,0 0.565278,0 1.292063,0 2.180357,-0.08076 0.888294,0 1.695834,-0.08075 2.341866,-0.242262 0.646032,-0.08075 1.21131,-0.242261 1.615079,-0.40377 0.726787,-0.323016 1.372819,-0.726785 2.018852,-1.292063 0.565277,-0.56528 0.969047,-1.211311 1.292063,-2.018852 0.161509,-0.403769 0.323016,-0.969047 0.40377,-1.615079 0.08076,-0.646032 0.161508,-1.372818 0.242262,-2.341866 0,-0.888294 0.08076,-1.615079 0.08076,-2.180357 0,-0.565278 0,-1.372819 0,-2.341866 0,-1.049803 0,-1.615081 0,-1.695834 0,-0.08076 0,-0.646032 0,-1.695835 0,-1.049802 0,-1.857341 0,-2.341866 0,-0.565278 0,-1.292064 -0.08076,-2.180358 0,-0.888294 -0.08075,-1.6958338 -0.242262,-2.3418661 C 31.585205,8.3991296 31.423699,7.8338517 31.26219,7.4300824 30.939174,6.7032959 30.535404,6.0572636 29.970127,5.4112325 29.404847,4.8459546 28.758816,4.4421842 27.951275,4.119168 27.547506,3.9576606 26.982228,3.7961519 26.336196,3.7153976 25.690164,3.634642 24.963378,3.5538901 23.99433,3.473137 c -0.888294,0 -1.615079,-0.080756 -2.180357,-0.080756 -0.484525,0 -1.292065,0 -2.341866,0 z m 4.522223,7.9138906 c 1.695834,1.695835 2.584128,3.795439 2.584128,6.298814 0,2.503373 -0.888294,4.522223 -2.584128,6.298811 -1.695834,1.695834 -3.795438,2.584128 -6.298812,2.584128 -2.503374,0 -4.522224,-0.888294 -6.298811,-2.584128 -1.6958353,-1.695834 -2.5841294,-3.795438 -2.5841294,-6.298811 0,-2.503375 0.8882941,-4.522225 2.5841294,-6.298814 1.695834,-1.6958334 3.795437,-2.5841274 6.298811,-2.5841274 2.503374,0 4.602978,0.8075397 6.298812,2.5841274 z m -2.180357,10.336513 c 1.130555,-1.130555 1.695833,-2.503374 1.695833,-4.037699 0,-1.534327 -0.565278,-2.987899 -1.695833,-4.118455 -1.130556,-1.130555 -2.503375,-1.695834 -4.118455,-1.695834 -1.61508,0 -2.987898,0.565279 -4.118454,1.695834 -1.130556,1.130556 -1.695834,2.503374 -1.695834,4.118455 0,1.615079 0.565278,2.987897 1.695834,4.037699 1.130556,1.130556 2.503374,1.695834 4.118454,1.695834 1.61508,0 2.987899,-0.565278 4.118455,-1.695834 z M 28.4358,6.8648033 c 0.40377,0.4037693 0.646033,0.8882941 0.646033,1.453572 0,0.5652779 -0.242263,1.0498015 -0.646033,1.453572 -0.40377,0.4037697 -0.888294,0.6460307 -1.453572,0.6460307 -0.565278,0 -1.049802,-0.242261 -1.453572,-0.6460307 -0.40377,-0.4037705 -0.646032,-0.8882941 -0.646032,-1.453572 0,-0.5652779 0.242262,-1.0498027 0.646032,-1.453572 0.40377,-0.4037704 0.888294,-0.6460322 1.453572,-0.6460322 0.565278,0 1.049802,0.2422618 1.453572,0.6460322 z"
     id="path9"
     inkscape:connector-curvature="0" /></svg>
