<?xml version="1.0" encoding="UTF-8" standalone="no"?>
<!-- Generator: Adobe Illustrator 15.0.0, SVG Export Plug-In . SVG Version: 6.00 Build 0)  -->

<svg
   xmlns:dc="http://purl.org/dc/elements/1.1/"
   xmlns:cc="http://creativecommons.org/ns#"
   xmlns:rdf="http://www.w3.org/1999/02/22-rdf-syntax-ns#"
   xmlns:svg="http://www.w3.org/2000/svg"
   xmlns="http://www.w3.org/2000/svg"
   xmlns:sodipodi="http://sodipodi.sourceforge.net/DTD/sodipodi-0.dtd"
   xmlns:inkscape="http://www.inkscape.org/namespaces/inkscape"
   version="1.1"
   id="Layer_1"
   x="0px"
   y="0px"
   width="80.594002"
   height="35.000217"
   viewBox="0 0 80.594004 35.000216"
   enable-background="new 0 0 512 512"
   xml:space="preserve"
   inkscape:version="0.92.4 (unknown)"
   sodipodi:docname="scColored.svg"><style
     id="style4757">
.clickImg {
    fill:#000000;
    fill-opacity:1;
}</style><metadata
     id="metadata29"><rdf:RDF><cc:Work
         rdf:about=""><dc:format>image/svg+xml</dc:format><dc:type
           rdf:resource="http://purl.org/dc/dcmitype/StillImage" /></cc:Work></rdf:RDF></metadata><defs
     id="defs27" /><sodipodi:namedview
     pagecolor="#ffffff"
     bordercolor="#666666"
     borderopacity="1"
     objecttolerance="10"
     gridtolerance="10"
     guidetolerance="10"
     inkscape:pageopacity="0"
     inkscape:pageshadow="2"
     inkscape:window-width="2048"
     inkscape:window-height="1067"
     id="namedview25"
     showgrid="false"
     fit-margin-top="0"
     fit-margin-left="0"
     fit-margin-right="0"
     fit-margin-bottom="0"
     inkscape:zoom="2.6074563"
     inkscape:cx="24.978755"
     inkscape:cy="17.500104"
     inkscape:window-x="0"
     inkscape:window-y="51"
     inkscape:window-maximized="1"
     inkscape:current-layer="Layer_1" /><g
     class="clickImg"
     transform="matrix(0.15741047,0,0,0.15741047,-1.5741047e-4,-22.796973)"
     style="fill:#000000;fill-opacity:1"
     id="g3"><path
       inkscape:connector-curvature="0"
       style="fill:#000000;fill-opacity:1"
       id="path5"
       d="m 5.798,277.808 c -1.068,0 -1.916,0.826 -2.054,2.006 l -3.743,28.438 3.743,27.95 c 0.139,1.176 0.985,1.997 2.054,1.997 1.035,0 1.878,-0.813 2.042,-1.985 L 12.278,308.252 7.84,279.806 c -0.158,-1.172 -1.012,-1.998 -2.042,-1.998 z" /><path
       inkscape:connector-curvature="0"
       style="fill:#000000;fill-opacity:1"
       id="path7"
       d="m 35.966,260.202 c -1.085,0 -1.983,0.872 -2.131,2.066 0,0.01 -5.034,45.98 -5.034,45.98 l 5.034,44.963 c 0.142,1.206 1.04,2.076 2.131,2.076 1.07,0 1.948,-0.85 2.124,-2.063 l 5.726,-44.976 -5.719,-45.98 c -0.176,-1.222 -1.052,-2.066 -2.131,-2.066 z" /><path
       inkscape:connector-curvature="0"
       style="fill:#000000;fill-opacity:1"
       id="path9"
       d="m 65.122,249.256 c -1.586,0 -2.879,1.269 -3.007,2.96 l -4.513,56.05 4.513,54.229 c 0.121,1.679 1.421,2.947 3.007,2.947 1.568,0 2.863,-1.27 3.002,-2.947 l 5.133,-54.229 -5.133,-56.062 c -0.138,-1.68 -1.432,-2.948 -3.002,-2.948 z" /><path
       inkscape:connector-curvature="0"
       style="fill:#000000;fill-opacity:1"
       id="path11"
       d="m 94.101,252.881 c -1.851,0 -3.326,1.46 -3.442,3.393 l -4.255,51.993 4.255,54.676 c 0.123,1.929 1.592,3.388 3.442,3.388 1.823,0 3.298,-1.46 3.435,-3.383 l 4.835,-54.681 -4.835,-52.017 c -0.13,-1.921 -1.607,-3.369 -3.435,-3.369 z" /><path
       inkscape:connector-curvature="0"
       style="fill:#000000;fill-opacity:1"
       id="path13"
       d="m 123.084,219.854 c -2.064,0 -3.771,1.691 -3.869,3.84 l -4.011,84.594 4.011,54.671 c 0.104,2.137 2.068,3.821 4.134,3.821 2.055,0 4.142,-1.692 4.142,-3.834 v 0.019 l 4.267,-54.677 -4.664,-84.594 c -0.124,-2.148 -1.955,-3.84 -4.01,-3.84 z" /><path
       inkscape:connector-curvature="0"
       style="fill:#000000;fill-opacity:1"
       id="path15"
       d="m 152.066,200.088 c -2.322,0 -4.216,1.877 -4.318,4.272 0,0.007 -3.742,103.945 -3.742,103.945 l 3.75,54.326 c 0.094,2.374 1.988,4.253 4.311,4.253 2.302,0 4.201,-1.879 4.311,-4.273 l 4.23,-54.306 -4.23,-103.945 c -0.115,-2.399 -2.01,-4.272 -4.312,-4.272 z" /><path
       inkscape:connector-curvature="0"
       style="fill:#000000;fill-opacity:1"
       id="path17"
       d="m 181.219,186.741 c -2.83,0 -5.11,2.262 -5.187,5.159 l -3.226,116.416 3.23,53.436 c 0.079,2.864 2.854,5.128 5.678,5.128 2.819,0 5.681,-2.264 5.681,-5.145 v -0.004 l 3.134,-53.412 -3.879,-116.42 c -0.09,-2.889 -2.618,-5.158 -5.431,-5.158 z" /><path
       inkscape:connector-curvature="0"
       style="fill:#000000;fill-opacity:1"
       id="path19"
       d="m 210.385,192.995 c -3.331,0 -6.002,2.649 -6.067,6.042 l -2.709,109.302 2.709,52.596 c 0.065,3.349 2.799,5.997 6.135,5.997 3.326,0 6.125,-2.644 6.125,-6.033 v 0.043 l 2.972,-52.597 -3.073,-109.316 c -0.08,-3.384 -2.766,-6.034 -6.092,-6.034 z" /><path
       inkscape:connector-curvature="0"
       style="fill:#000000;fill-opacity:1"
       id="path21"
       d="m 240.193,159.581 c -3.782,0 -6.886,3.104 -6.943,6.919 l -2.84,141.867 2.848,51.484 c 0.05,3.765 3.496,6.862 7.277,6.862 3.773,0 7.276,-3.099 7.276,-6.918 v 0.061 l 2.747,-51.489 -3.262,-141.878 c -0.055,-3.804 -3.33,-6.908 -7.103,-6.908 z" /><path
       inkscape:connector-curvature="0"
       style="fill:#000000;fill-opacity:1"
       id="path23"
       d="m 449.018,241.212 c -8.627,0 -16.861,1.746 -24.357,4.89 -5.012,-56.757 -52.607,-101.277 -110.662,-101.277 -14.207,0 -27.99,2.795 -40.219,7.526 -4.752,1.838 -6,3.733 -6,7.403 v 199.874 c 0,3.854 2.977,7.065 6.736,7.442 0.16,0.018 173.404,0.105 174.527,0.105 34.777,0 62.957,-28.198 62.957,-62.979 0,-34.781 -28.207,-62.984 -62.982,-62.984 z" /></g></svg>
